<?xml version="1.0" encoding="utf-8"?>
<!DOCTYPE svg PUBLIC "-//W3C//DTD SVG 1.1//EN" "http://www.w3.org/Graphics/SVG/1.1/DTD/svg11.dtd">
<svg version="1.1" xmlns="http://www.w3.org/2000/svg" xmlns:xlink="http://www.w3.org/1999/xlink" x="0px" y="0px" viewBox="0 0 1000 1000" enable-background="new 0 0 1000 1000" xml:space="preserve">
<g><g><g><path fill="white" d="M500,177.8c-177.7,0-322.3,144.6-322.3,322.3c0,177.7,144.6,322.3,322.3,322.3c177.7,0,322.3-144.6,322.3-322.3C822.3,322.4,677.7,177.8,500,177.8z M500,744.2c-134.6,0-244.1-109.6-244.1-244.1c0-134.6,109.6-244.1,244.1-244.1c134.6,0,244.2,109.6,244.2,244.1C744.2,634.7,634.6,744.2,500,744.2z"/><path fill="white" d="M500,10C229.8,10,10,229.8,10,500c0,270.1,219.8,490,490,490c270.2,0,490-219.8,490-490C990,229.8,770.2,10,500,10z M500,911.9C272.9,911.9,88.1,727.2,88.1,500C88.1,272.9,272.9,88.2,500,88.2c227.1,0,411.8,184.7,411.8,411.8C911.8,727.1,727.1,911.9,500,911.9z"/></g></g><g></g><g></g><g></g><g></g><g></g><g></g><g></g><g></g><g></g><g></g><g></g><g></g><g></g><g></g><g></g></g>
</svg>
